<svg width="14" height="15" viewBox="0 0 14 15" fill="none" xmlns="http://www.w3.org/2000/svg">
<path d="M6.41634 4.29199C6.41634 2.84013 7.59943 1.66699 9.04705 1.66699C10.4884 1.66699 11.6663 2.83502 11.6663 4.2806V4.29199C11.6663 4.61416 11.4052 4.87533 11.083 4.87533C10.7608 4.87533 10.4997 4.61416 10.4997 4.29199V4.2806C10.4997 3.4836 9.8483 2.83366 9.04705 2.83366C8.23951 2.83366 7.58301 3.4887 7.58301 4.29199V6.33366H9.91634C10.2385 6.33366 10.4997 6.59483 10.4997 6.91699C10.4997 7.23916 10.2385 7.50033 9.91634 7.50033H7.58301V10.7087C7.58301 12.1605 6.39992 13.3337 4.9523 13.3337C3.51096 13.3337 2.33301 12.1656 2.33301 10.7201V10.7087C2.33301 10.3865 2.59418 10.1253 2.91634 10.1253C3.23851 10.1253 3.49967 10.3865 3.49967 10.7087V10.7201C3.49967 11.5171 4.15105 12.167 4.9523 12.167C5.75983 12.167 6.41634 11.512 6.41634 10.7087L6.41634 7.50033H4.66634C4.34417 7.50033 4.08301 7.23916 4.08301 6.91699C4.08301 6.59483 4.34417 6.33366 4.66634 6.33366H6.41634V4.29199Z" fill="#646A73"/>
</svg>
