<svg width="12" height="13" viewBox="0 0 12 13" fill="none" xmlns="http://www.w3.org/2000/svg">
<path d="M6 3.25C5.51675 3.25 5.125 2.85825 5.125 2.375C5.125 1.89175 5.51675 1.5 6 1.5C6.48325 1.5 6.875 1.89175 6.875 2.375C6.875 2.85825 6.48325 3.25 6 3.25Z" fill="#646A73"/>
<path d="M6 7.36269C5.51675 7.36269 5.125 6.97094 5.125 6.48769C5.125 6.00444 5.51675 5.61269 6 5.61269C6.48325 5.61269 6.875 6.00444 6.875 6.48769C6.875 6.97094 6.48325 7.36269 6 7.36269Z" fill="#646A73"/>
<path d="M6 11.5C5.51675 11.5 5.125 11.1082 5.125 10.625C5.125 10.1418 5.51675 9.75 6 9.75C6.48325 9.75 6.875 10.1418 6.875 10.625C6.875 11.1082 6.48325 11.5 6 11.5Z" fill="#646A73"/>
</svg>
